<svg width="32" height="40" viewBox="0 0 32 40" fill="none" xmlns="http://www.w3.org/2000/svg">
<path d="M0.544 39.176C0.992 37.608 1.504 35.88 2.08 33.992C2.688 32.072 3.392 29.816 4.192 27.224C4.992 24.632 5.92 21.56 6.976 18.008C8.064 14.456 9.312 10.248 10.72 5.384C10.752 5.256 10.816 5 10.912 4.616C11.008 4.232 11.056 3.848 11.056 3.464C11.056 3.208 11.008 3.016 10.912 2.888C10.816 2.728 10.64 2.648 10.384 2.648C9.68 2.648 9.008 2.936 8.368 3.512C7.728 4.056 7.152 4.76 6.64 5.624C6.16 6.456 5.776 7.336 5.488 8.264C5.2 9.16 5.056 9.976 5.056 10.712C5.056 11.416 5.184 12.104 5.44 12.776C4.16 12.776 3.248 12.488 2.704 11.912C2.192 11.336 1.936 10.616 1.936 9.752C1.936 8.664 2.272 7.576 2.944 6.488C3.616 5.4 4.464 4.408 5.488 3.512C6.512 2.584 7.584 1.848 8.704 1.304C9.824 0.727999 10.848 0.439999 11.776 0.439999C12.832 0.439999 13.696 0.855999 14.368 1.688C15.072 2.488 15.632 3.592 16.048 5C16.496 6.408 16.864 8.008 17.152 9.8C17.472 11.592 17.76 13.48 18.016 15.464C18.336 17.672 18.608 19.56 18.832 21.128C19.056 22.664 19.248 23.976 19.408 25.064C19.568 26.12 19.712 27.048 19.84 27.848C19.968 28.648 20.096 29.432 20.224 30.2C20.544 28.696 20.912 27.064 21.328 25.304C21.744 23.512 22.176 21.688 22.624 19.832C23.072 17.944 23.52 16.12 23.968 14.36C24.448 12.568 24.912 10.904 25.36 9.368C25.808 7.832 26.224 6.504 26.608 5.384C26.992 4.264 27.328 3.432 27.616 2.888C27.872 2.408 28.304 1.88 28.912 1.304C29.52 0.695999 30.288 0.391999 31.216 0.391999C30.672 1.864 30.048 3.672 29.344 5.816C28.672 7.928 27.984 10.232 27.28 12.728C26.576 15.192 25.888 17.72 25.216 20.312C24.576 22.872 23.984 25.352 23.44 27.752C22.928 30.152 22.512 32.344 22.192 34.328C21.904 36.312 21.76 37.928 21.76 39.176C20.64 39.176 19.728 38.888 19.024 38.312C18.32 37.768 17.792 36.712 17.44 35.144C17.312 34.504 17.12 33.512 16.864 32.168C16.608 30.824 16.32 29.272 16 27.512C15.712 25.752 15.408 23.912 15.088 21.992C14.768 20.072 14.448 18.184 14.128 16.328C13.84 14.472 13.568 12.808 13.312 11.336C13.056 9.832 12.848 8.648 12.688 7.784C11.216 13.128 9.952 17.656 8.896 21.368C7.872 25.08 6.976 28.104 6.208 30.44C5.44 32.744 4.752 34.536 4.144 35.816C3.568 37.096 2.992 37.976 2.416 38.456C1.84 38.936 1.216 39.176 0.544 39.176Z" fill="#FCDA68"/>
</svg>
