<svg width="24" height="24" viewBox="0 0 24 24" fill="none" xmlns="http://www.w3.org/2000/svg">
<path d="M2.04175 19.1666C1.67508 19.1666 1.35425 19.0291 1.07925 18.7541C0.804248 18.4791 0.666748 18.1583 0.666748 17.7916V2.20825C0.666748 1.84159 0.804248 1.52075 1.07925 1.24575C1.35425 0.970752 1.67508 0.833252 2.04175 0.833252H13.9584C14.3251 0.833252 14.6459 0.970752 14.9209 1.24575C15.1959 1.52075 15.3334 1.84159 15.3334 2.20825V17.7916C15.3334 18.1583 15.1959 18.4791 14.9209 18.7541C14.6459 19.0291 14.3251 19.1666 13.9584 19.1666H2.04175ZM2.04175 17.7916H13.9584V2.20825H12.5834V7.70825C12.5834 7.84575 12.5299 7.94888 12.423 8.01763C12.3161 8.08638 12.2015 8.08256 12.0792 8.00617L10.3605 7.02075L8.64175 8.00617C8.51953 8.08256 8.40494 8.08638 8.298 8.01763C8.19105 7.94888 8.13758 7.84575 8.13758 7.70825V2.20825H2.04175V17.7916ZM8.13758 2.20825H10.3605H12.5834H8.13758ZM2.04175 2.20825H8.13758H10.3605H12.5834H13.9584H2.04175Z" fill="url(#paint0_linear_23_766)"/>
<defs>
<linearGradient id="paint0_linear_23_766" x1="8.00008" y1="0.833252" x2="8.00008" y2="19.1666" gradientUnits="userSpaceOnUse">
<stop stop-color="#FCDA68"/>
<stop offset="1" stop-color="#E2AE00"/>
</linearGradient>
</defs>
</svg>
