<svg width="24" height="24" viewBox="0 0 24 24" fill="none" xmlns="http://www.w3.org/2000/svg">
<path d="M12.1688 19.1666C11.8174 19.1666 11.5615 19.052 11.4011 18.8228C11.2407 18.5937 11.2216 18.311 11.3438 17.9749L14.7126 9.03742C14.8042 8.79297 14.9723 8.58672 15.2167 8.41867C15.4612 8.25061 15.7133 8.16659 15.973 8.16659C16.2327 8.16659 16.4886 8.25061 16.7407 8.41867C16.9928 8.58672 17.1647 8.79297 17.2563 9.03742L20.6938 17.8833C20.8313 18.2346 20.8161 18.5364 20.648 18.7885C20.4799 19.0405 20.1973 19.1666 19.8001 19.1666C19.632 19.1666 19.4716 19.1131 19.3188 19.0062C19.1661 18.8992 19.0591 18.7617 18.998 18.5937L18.2417 16.2791H13.8417L12.9709 18.6166C12.9098 18.7694 12.8029 18.8992 12.6501 19.0062C12.4973 19.1131 12.3369 19.1666 12.1688 19.1666ZM14.3459 14.6749H17.6001L15.9959 10.2291H15.9501L14.3459 14.6749ZM6.623 6.83742C6.85216 7.23464 7.10425 7.6204 7.37925 7.99471C7.65425 8.36902 7.95216 8.75478 8.273 9.152C8.9605 8.43395 9.53341 7.68915 9.99175 6.91763C10.4501 6.1461 10.8397 5.3402 11.1605 4.49992H1.83341C1.57369 4.49992 1.35598 4.41207 1.18029 4.23638C1.0046 4.06068 0.916748 3.84297 0.916748 3.58325C0.916748 3.32353 1.0046 3.10582 1.18029 2.93013C1.35598 2.75443 1.57369 2.66659 1.83341 2.66659H7.33341V1.74992C7.33341 1.4902 7.42126 1.27249 7.59696 1.09679C7.77265 0.921099 7.99036 0.833252 8.25008 0.833252C8.5098 0.833252 8.72751 0.921099 8.90321 1.09679C9.0789 1.27249 9.16675 1.4902 9.16675 1.74992V2.66659H14.6667C14.9265 2.66659 15.1442 2.75443 15.3199 2.93013C15.4956 3.10582 15.5834 3.32353 15.5834 3.58325C15.5834 3.84297 15.4956 4.06068 15.3199 4.23638C15.1442 4.41207 14.9265 4.49992 14.6667 4.49992H12.9938C12.6577 5.55409 12.2108 6.58915 11.6532 7.60513C11.0956 8.6211 10.4119 9.58742 9.60216 10.5041L11.848 12.7728L11.1605 14.6291L8.25008 11.8333L4.2855 15.7978C4.11744 15.9659 3.91119 16.0499 3.66675 16.0499C3.4223 16.0499 3.21605 15.9583 3.048 15.7749C2.86466 15.6069 2.773 15.4006 2.773 15.1562C2.773 14.9117 2.86466 14.6978 3.048 14.5145L7.08133 10.4812C6.68411 10.0076 6.3098 9.53013 5.95841 9.04888C5.60703 8.56763 5.28619 8.07492 4.99591 7.57075C4.81258 7.23464 4.7973 6.94436 4.95008 6.69992C5.10286 6.45547 5.37786 6.33325 5.77508 6.33325C5.94314 6.33325 6.10737 6.38291 6.26779 6.48221C6.42821 6.58152 6.54661 6.69992 6.623 6.83742Z" fill="url(#paint0_linear_23_764)"/>
<defs>
<linearGradient id="paint0_linear_23_764" x1="10.8517" y1="0.833252" x2="10.8517" y2="19.1666" gradientUnits="userSpaceOnUse">
<stop stop-color="#FCDA68"/>
<stop offset="1" stop-color="#E2AE00"/>
</linearGradient>
</defs>
</svg>
