<svg width="48" height="58" viewBox="0 0 48 58" fill="none" xmlns="http://www.w3.org/2000/svg">
<rect y="5" width="24" height="24" rx="5" fill="#FCDA68"/>
<path d="M3.544 48.176C3.992 46.608 4.504 44.88 5.08 42.992C5.688 41.072 6.392 38.816 7.192 36.224C7.992 33.632 8.92 30.56 9.976 27.008C11.064 23.456 12.312 19.248 13.72 14.384C13.752 14.256 13.816 14 13.912 13.616C14.008 13.232 14.056 12.848 14.056 12.464C14.056 12.208 14.008 12.016 13.912 11.888C13.816 11.728 13.64 11.648 13.384 11.648C12.68 11.648 12.008 11.936 11.368 12.512C10.728 13.056 10.152 13.76 9.64 14.624C9.16 15.456 8.776 16.336 8.488 17.264C8.2 18.16 8.056 18.976 8.056 19.712C8.056 20.416 8.184 21.104 8.44 21.776C7.16 21.776 6.248 21.488 5.704 20.912C5.192 20.336 4.936 19.616 4.936 18.752C4.936 17.664 5.272 16.576 5.944 15.488C6.616 14.4 7.464 13.408 8.488 12.512C9.512 11.584 10.584 10.848 11.704 10.304C12.824 9.728 13.848 9.44 14.776 9.44C15.832 9.44 16.696 9.856 17.368 10.688C18.072 11.488 18.632 12.592 19.048 14C19.496 15.408 19.864 17.008 20.152 18.8C20.472 20.592 20.76 22.48 21.016 24.464C21.336 26.672 21.608 28.56 21.832 30.128C22.056 31.664 22.248 32.976 22.408 34.064C22.568 35.12 22.712 36.048 22.84 36.848C22.968 37.648 23.096 38.432 23.224 39.2C23.544 37.696 23.912 36.064 24.328 34.304C24.744 32.512 25.176 30.688 25.624 28.832C26.072 26.944 26.52 25.12 26.968 23.36C27.448 21.568 27.912 19.904 28.36 18.368C28.808 16.832 29.224 15.504 29.608 14.384C29.992 13.264 30.328 12.432 30.616 11.888C30.872 11.408 31.304 10.88 31.912 10.304C32.52 9.696 33.288 9.392 34.216 9.392C33.672 10.864 33.048 12.672 32.344 14.816C31.672 16.928 30.984 19.232 30.28 21.728C29.576 24.192 28.888 26.72 28.216 29.312C27.576 31.872 26.984 34.352 26.44 36.752C25.928 39.152 25.512 41.344 25.192 43.328C24.904 45.312 24.76 46.928 24.76 48.176C23.64 48.176 22.728 47.888 22.024 47.312C21.32 46.768 20.792 45.712 20.44 44.144C20.312 43.504 20.12 42.512 19.864 41.168C19.608 39.824 19.32 38.272 19 36.512C18.712 34.752 18.408 32.912 18.088 30.992C17.768 29.072 17.448 27.184 17.128 25.328C16.84 23.472 16.568 21.808 16.312 20.336C16.056 18.832 15.848 17.648 15.688 16.784C14.216 22.128 12.952 26.656 11.896 30.368C10.872 34.08 9.976 37.104 9.208 39.44C8.44 41.744 7.752 43.536 7.144 44.816C6.568 46.096 5.992 46.976 5.416 47.456C4.84 47.936 4.216 48.176 3.544 48.176ZM36.397 46.208C34.989 46.208 33.869 45.792 33.037 44.96C32.237 44.16 31.837 42.928 31.837 41.264C31.837 39.92 32.093 38.256 32.605 36.272C33.117 34.288 33.757 32.24 34.525 30.128C34.269 30.064 33.981 30.016 33.661 29.984C33.373 29.92 33.101 29.824 32.845 29.696V28.4C33.261 28.464 33.629 28.512 33.949 28.544C34.301 28.576 34.669 28.608 35.053 28.64C35.725 26.944 36.445 25.296 37.213 23.696C38.013 22.096 38.797 20.672 39.565 19.424C40.333 18.176 41.069 17.184 41.773 16.448C42.477 15.712 43.085 15.344 43.597 15.344C43.917 15.344 44.205 15.456 44.461 15.68C44.717 15.904 44.845 16.224 44.845 16.64C44.845 17.248 44.509 18.16 43.837 19.376C43.197 20.56 42.381 21.968 41.389 23.6C40.429 25.2 39.501 26.928 38.605 28.784C38.861 28.784 39.117 28.784 39.373 28.784C39.661 28.784 39.933 28.784 40.189 28.784C41.469 28.784 42.685 28.768 43.837 28.736C44.989 28.672 46.157 28.576 47.341 28.448V29.792C45.581 29.984 43.965 30.128 42.493 30.224C41.053 30.32 39.709 30.368 38.461 30.368C38.365 30.368 38.253 30.368 38.125 30.368C38.029 30.368 37.933 30.368 37.837 30.368C37.133 32 36.525 33.664 36.013 35.36C35.533 37.056 35.293 38.704 35.293 40.304C35.293 41.648 35.501 42.608 35.917 43.184C36.333 43.728 37.005 44 37.933 44C39.533 44 41.165 43.264 42.829 41.792C44.493 40.32 45.933 38.336 47.149 35.84L47.821 36.32C47.021 38.176 46.013 39.856 44.797 41.36C43.581 42.864 42.253 44.048 40.813 44.912C39.405 45.776 37.933 46.208 36.397 46.208Z" fill="black"/>
</svg>
