<svg width="20" height="20" viewBox="0 0 20 20" fill="none" xmlns="http://www.w3.org/2000/svg">
<path d="M2.68384 8.038C2.15606 8.038 1.71162 7.85745 1.3505 7.49634C0.989394 7.13523 0.808838 6.69078 0.808838 6.163C0.808838 5.63523 0.989394 5.19078 1.3505 4.82967C1.71162 4.46856 2.15606 4.288 2.68384 4.288C3.21162 4.288 3.65606 4.46856 4.01717 4.82967C4.37828 5.19078 4.55884 5.63523 4.55884 6.163C4.55884 6.69078 4.37828 7.13523 4.01717 7.49634C3.65606 7.85745 3.21162 8.038 2.68384 8.038ZM6.538 4.49634C6.01023 4.49634 5.56578 4.31578 5.20467 3.95467C4.84356 3.59356 4.663 3.14912 4.663 2.62134C4.663 2.09356 4.84356 1.64912 5.20467 1.288C5.56578 0.926894 6.01023 0.746338 6.538 0.746338C7.06578 0.746338 7.51023 0.926894 7.87134 1.288C8.23245 1.64912 8.413 2.09356 8.413 2.62134C8.413 3.14912 8.23245 3.59356 7.87134 3.95467C7.51023 4.31578 7.06578 4.49634 6.538 4.49634ZM11.7463 4.49634C11.2186 4.49634 10.7741 4.31578 10.413 3.95467C10.0519 3.59356 9.87134 3.14912 9.87134 2.62134C9.87134 2.09356 10.0519 1.64912 10.413 1.288C10.7741 0.926894 11.2186 0.746338 11.7463 0.746338C12.2741 0.746338 12.7186 0.926894 13.0797 1.288C13.4408 1.64912 13.6213 2.09356 13.6213 2.62134C13.6213 3.14912 13.4408 3.59356 13.0797 3.95467C12.7186 4.31578 12.2741 4.49634 11.7463 4.49634ZM15.6005 8.038C15.0727 8.038 14.6283 7.85745 14.2672 7.49634C13.9061 7.13523 13.7255 6.69078 13.7255 6.163C13.7255 5.67689 13.9061 5.24287 14.2672 4.86092C14.6283 4.47898 15.0727 4.288 15.6005 4.288C16.1283 4.288 16.5727 4.46856 16.9338 4.82967C17.295 5.19078 17.4755 5.63523 17.4755 6.163C17.4755 6.69078 17.295 7.13523 16.9338 7.49634C16.5727 7.85745 16.1283 8.038 15.6005 8.038ZM4.68384 16.5797C4.1005 16.5797 3.62134 16.3609 3.24634 15.9234C2.87134 15.4859 2.68384 14.9686 2.68384 14.3713C2.68384 13.788 2.86092 13.2706 3.21509 12.8193C3.56925 12.3679 3.94773 11.9338 4.3505 11.5172C4.65606 11.2116 4.94078 10.8887 5.20467 10.5484C5.46856 10.2081 5.71856 9.85745 5.95467 9.49634C6.35745 8.88523 6.80884 8.31578 7.30884 7.788C7.80884 7.26023 8.41995 6.99634 9.14217 6.99634C9.86439 6.99634 10.479 7.26023 10.9859 7.788C11.4929 8.31578 11.9477 8.89217 12.3505 9.51717C12.5866 9.87828 12.8331 10.2255 13.0901 10.5588C13.347 10.8922 13.6283 11.2116 13.9338 11.5172C14.3366 11.9338 14.7151 12.3679 15.0693 12.8193C15.4234 13.2706 15.6005 13.788 15.6005 14.3713C15.6005 14.9686 15.413 15.4859 15.038 15.9234C14.663 16.3609 14.1838 16.5797 13.6005 16.5797C12.8505 16.5797 12.1074 16.5172 11.3713 16.3922C10.6352 16.2672 9.89217 16.2047 9.14217 16.2047C8.39217 16.2047 7.64912 16.2672 6.913 16.3922C6.17689 16.5172 5.43384 16.5797 4.68384 16.5797Z" fill="url(#paint0_linear_23_720)"/>
<defs>
<linearGradient id="paint0_linear_23_720" x1="9.14217" y1="0.746338" x2="9.14217" y2="16.5797" gradientUnits="userSpaceOnUse">
<stop stop-color="#E7EA66"/>
<stop offset="1" stop-color="#C0C236"/>
</linearGradient>
</defs>
</svg>
