<svg width="20" height="20" viewBox="0 0 20 20" fill="none" xmlns="http://www.w3.org/2000/svg">
<path d="M4.04167 13.6667C2.91667 13.6667 1.96181 13.2709 1.17708 12.4792C0.392361 11.6875 0 10.7292 0 9.60421C0 8.47921 0.395833 7.52435 1.1875 6.73962C1.97917 5.9549 2.9375 5.56254 4.0625 5.56254C5.04861 5.56254 5.91319 5.87851 6.65625 6.51046C7.39931 7.1424 7.84722 7.94449 8 8.91671H9.0625L7.35417 4.08337H5.83333V2.83337H9.75V4.08337H8.66667L9.20833 5.56254H13.8333L12.3542 1.58337H10.1667V0.333374H12.2292C12.5625 0.333374 12.8438 0.409763 13.0729 0.562541C13.3021 0.715319 13.4722 0.944485 13.5833 1.25004L15.1667 5.56254H15.9583C17.0833 5.56254 18.0382 5.95143 18.8229 6.72921C19.6076 7.50699 20 8.45143 20 9.56254C20 10.6875 19.6076 11.6528 18.8229 12.4584C18.0382 13.2639 17.0833 13.6667 15.9583 13.6667C14.9583 13.6667 14.0833 13.3334 13.3333 12.6667C12.5833 12 12.125 11.1667 11.9583 10.1667H8C7.84722 11.1667 7.39931 12 6.65625 12.6667C5.91319 13.3334 5.04167 13.6667 4.04167 13.6667ZM4.04167 12.4167C4.70833 12.4167 5.28819 12.2014 5.78125 11.7709C6.27431 11.3403 6.60417 10.8056 6.77083 10.1667H4.29167V8.91671H6.77083C6.60417 8.29171 6.27083 7.78476 5.77083 7.39587C5.27083 7.00699 4.70139 6.81254 4.0625 6.81254C3.28472 6.81254 2.62153 7.08337 2.07292 7.62504C1.52431 8.16671 1.25 8.82643 1.25 9.60421C1.25 10.382 1.52083 11.0452 2.0625 11.5938C2.60417 12.1424 3.26389 12.4167 4.04167 12.4167ZM10.3958 8.91671H11.9792C12.0347 8.59726 12.1424 8.2431 12.3021 7.85421C12.4618 7.46532 12.6806 7.1181 12.9583 6.81254H9.64583L10.3958 8.91671ZM15.9583 12.4167C16.7361 12.4167 17.3958 12.1424 17.9375 11.5938C18.4792 11.0452 18.75 10.382 18.75 9.60421C18.75 8.82643 18.4792 8.16671 17.9375 7.62504C17.3958 7.08337 16.7361 6.81254 15.9583 6.81254C15.9028 6.81254 15.8472 6.81254 15.7917 6.81254C15.7361 6.81254 15.6806 6.81254 15.625 6.81254L16.4375 9.16671L15.2708 9.56254L14.375 7.22921C13.9722 7.46532 13.6701 7.79865 13.4688 8.22921C13.2674 8.65976 13.1667 9.1181 13.1667 9.60421C13.1667 10.382 13.4375 11.0452 13.9792 11.5938C14.5208 12.1424 15.1806 12.4167 15.9583 12.4167Z" fill="url(#paint0_linear_23_722)"/>
<defs>
<linearGradient id="paint0_linear_23_722" x1="10" y1="0.333374" x2="10" y2="13.6667" gradientUnits="userSpaceOnUse">
<stop stop-color="#E7EA66"/>
<stop offset="1" stop-color="#C0C236"/>
</linearGradient>
</defs>
</svg>
